<?xml version="1.0" encoding="utf-8"?>
<!-- Generator: Adobe Illustrator 27.5.0, SVG Export Plug-In . SVG Version: 6.00 Build 0)  -->
<svg version="1.1" xmlns="http://www.w3.org/2000/svg" xmlns:xlink="http://www.w3.org/1999/xlink" x="0px" y="0px"
	 viewBox="0 0 500 500" style="enable-background:new 0 0 500 500;" xml:space="preserve">
<g id="BACKGROUND">
	<rect style="fill:#FBFAFF;" width="500" height="500"/>
</g>
<g id="OBJECTS">
	<g>
		<text transform="matrix(1 0 0 1 107.5166 41.3252)"><tspan x="0" y="0" style="fill:#E257EE; font-family:'BebasNeueBold'; font-size:20px; letter-spacing:6;"> abstract BULLEt point </tspan><tspan x="109.308" y="24" style="fill:#E257EE; font-family:'BebasNeueBold'; font-size:20px; letter-spacing:6;">        </tspan></text>
	</g>
	<g>
		<g>
			<g>
				<g>
					<linearGradient id="SVGID_1_" gradientUnits="userSpaceOnUse" x1="86.2785" y1="197.5772" x2="136.8436" y2="197.5772">
						<stop  offset="0" style="stop-color:#4ED1ED"/>
						<stop  offset="0.52" style="stop-color:#48A5D1"/>
					</linearGradient>
					<path style="fill:url(#SVGID_1_);" d="M130.698,181.806c-3.205-5.105-8.605-7.922-14.326-9.116
						c-4.584-0.957-9.37-0.87-13.405-0.071c-1.977,0.391-3.775,0.95-5.276,1.643c-1.354,0.625-2.582,1.393-3.696,2.268
						c-2.661,2.091-4.637,4.828-5.922,7.909c-2.945,7.063-2.27,15.913,2.073,22.83c3.103,4.942,8.915,9.509,15.401,12.468
						c3.724,1.699,7.669,2.863,11.454,3.266c4.56,0.485,8.887-0.135,12.306-2.281c3.225-2.025,5.286-5.187,6.425-8.925
						C138.547,202.558,135.704,189.779,130.698,181.806z"/>
				</g>
				
					<linearGradient id="SVGID_00000037690629897313877690000014551133108355009978_" gradientUnits="userSpaceOnUse" x1="86.2785" y1="197.5772" x2="136.8436" y2="197.5772">
					<stop  offset="0" style="stop-color:#4ED1ED"/>
					<stop  offset="0.52" style="stop-color:#48A5D1"/>
				</linearGradient>
				<path style="fill:url(#SVGID_00000037690629897313877690000014551133108355009978_);" d="M130.698,181.806
					c-3.205-5.105-8.605-7.922-14.326-9.116c-4.584-0.957-9.37-0.87-13.405-0.071c-1.977,0.391-3.775,0.95-5.276,1.643
					c-1.354,0.625-2.582,1.393-3.696,2.268c-2.661,2.091-4.637,4.828-5.922,7.909c-2.945,7.063-2.27,15.913,2.073,22.83
					c3.103,4.942,8.915,9.509,15.401,12.468c3.724,1.699,7.669,2.863,11.454,3.266c4.56,0.485,8.887-0.135,12.306-2.281
					c3.225-2.025,5.286-5.187,6.425-8.925C138.547,202.558,135.704,189.779,130.698,181.806z"/>
			</g>
		</g>
		
			<linearGradient id="SVGID_00000051381894677418943960000016450503545581129368_" gradientUnits="userSpaceOnUse" x1="78.9399" y1="225.2616" x2="91.9131" y2="225.2616">
			<stop  offset="0" style="stop-color:#4ED1ED"/>
			<stop  offset="0.52" style="stop-color:#48A5D1"/>
		</linearGradient>
		<path style="fill:url(#SVGID_00000051381894677418943960000016450503545581129368_);" d="M91.822,223.401
			c-0.076-0.501-0.195-0.958-0.352-1.343c-0.141-0.347-0.32-0.664-0.527-0.954c-0.494-0.692-1.158-1.219-1.917-1.576
			c-1.739-0.82-3.967-0.752-5.753,0.259c-1.276,0.722-2.488,2.128-3.305,3.722c-0.469,0.915-0.806,1.892-0.951,2.837
			c-0.174,1.139-0.068,2.232,0.432,3.114c0.471,0.833,1.241,1.386,2.166,1.714c2.286,0.812,5.526,0.245,7.584-0.92
			c1.318-0.746,2.087-2.069,2.451-3.491C91.944,225.625,91.977,224.423,91.822,223.401z"/>
		<path style="fill:#55C0EC;" d="M141.093,227.556c-12.657,7.166-35.528,9.179-42.694-3.479
			c-7.165-12.657,4.088-35.193,16.745-42.358c12.657-7.165,30.406-3.526,35.893,9.944
			C154.871,201.075,153.751,220.39,141.093,227.556z"/>
		
			<linearGradient id="SVGID_00000054985203005197807050000006242949388103187102_" gradientUnits="userSpaceOnUse" x1="104.4568" y1="205.6896" x2="144.6858" y2="205.6896">
			<stop  offset="0" style="stop-color:#4ED1ED"/>
			<stop  offset="0.52" style="stop-color:#48A5D1"/>
		</linearGradient>
		<path style="fill:url(#SVGID_00000054985203005197807050000006242949388103187102_);" d="M136.269,221.172
			c-8.962,5.074-25.155,6.499-30.229-2.463c-5.073-8.962,2.894-24.918,11.856-29.991c8.962-5.074,21.529-2.497,25.413,7.041
			C146.025,202.422,145.231,216.098,136.269,221.172z"/>
		<g>
			<text transform="matrix(1 0 0 1 115.9581 212.1479)" style="fill:#FFFFFF; font-family:'Bebas'; font-size:16.2212px;">02</text>
		</g>
	</g>
	<g>
		<g>
			<g>
				<g>
					
						<linearGradient id="SVGID_00000054239028140765622950000010732620425884356794_" gradientUnits="userSpaceOnUse" x1="245.6011" y1="223.1587" x2="245.6011" y2="171.9956">
						<stop  offset="0" style="stop-color:#FDCA4D"/>
						<stop  offset="1" style="stop-color:#FEFC41;stop-opacity:0.5"/>
					</linearGradient>
					<path style="fill:url(#SVGID_00000054239028140765622950000010732620425884356794_);" d="M264.738,181.806
						c-3.205-5.105-8.605-7.922-14.326-9.116c-4.584-0.957-9.37-0.87-13.405-0.071c-1.977,0.391-3.775,0.95-5.276,1.643
						c-1.354,0.625-2.582,1.393-3.696,2.268c-2.661,2.091-4.637,4.828-5.922,7.909c-2.945,7.063-2.27,15.913,2.073,22.83
						c3.103,4.942,8.915,9.509,15.401,12.468c3.724,1.699,7.669,2.863,11.454,3.266c4.56,0.485,8.887-0.135,12.306-2.281
						c3.225-2.025,5.286-5.187,6.425-8.925C272.587,202.558,269.744,189.779,264.738,181.806z"/>
				</g>
				
					<linearGradient id="SVGID_00000058575846741388995900000007132014543837356220_" gradientUnits="userSpaceOnUse" x1="245.6011" y1="223.1587" x2="245.6011" y2="171.9956">
					<stop  offset="0" style="stop-color:#FDCA4D"/>
					<stop  offset="1" style="stop-color:#FEFC41;stop-opacity:0.5"/>
				</linearGradient>
				<path style="fill:url(#SVGID_00000058575846741388995900000007132014543837356220_);" d="M264.738,181.806
					c-3.205-5.105-8.605-7.922-14.326-9.116c-4.584-0.957-9.37-0.87-13.405-0.071c-1.977,0.391-3.775,0.95-5.276,1.643
					c-1.354,0.625-2.582,1.393-3.696,2.268c-2.661,2.091-4.637,4.828-5.922,7.909c-2.945,7.063-2.27,15.913,2.073,22.83
					c3.103,4.942,8.915,9.509,15.401,12.468c3.724,1.699,7.669,2.863,11.454,3.266c4.56,0.485,8.887-0.135,12.306-2.281
					c3.225-2.025,5.286-5.187,6.425-8.925C272.587,202.558,269.744,189.779,264.738,181.806z"/>
			</g>
		</g>
		
			<linearGradient id="SVGID_00000116946026459757933960000004778125801535056033_" gradientUnits="userSpaceOnUse" x1="212.98" y1="225.2616" x2="225.9532" y2="225.2616">
			<stop  offset="0" style="stop-color:#FDCA4D"/>
			<stop  offset="1" style="stop-color:#FEFC41;stop-opacity:0.5"/>
		</linearGradient>
		<path style="fill:url(#SVGID_00000116946026459757933960000004778125801535056033_);" d="M225.862,223.401
			c-0.076-0.501-0.195-0.958-0.352-1.343c-0.141-0.347-0.32-0.664-0.527-0.954c-0.494-0.692-1.159-1.219-1.917-1.576
			c-1.739-0.82-3.967-0.752-5.753,0.259c-1.276,0.722-2.488,2.128-3.305,3.722c-0.469,0.915-0.806,1.892-0.951,2.837
			c-0.174,1.139-0.068,2.232,0.432,3.114c0.471,0.833,1.241,1.386,2.166,1.714c2.286,0.812,5.526,0.245,7.584-0.92
			c1.318-0.746,2.087-2.069,2.452-3.491C225.984,225.625,226.017,224.423,225.862,223.401z"/>
		<path style="fill:#FDCA4D;" d="M275.133,227.556c-12.657,7.166-35.528,9.179-42.694-3.479
			c-7.165-12.657,4.088-35.193,16.745-42.358c12.657-7.165,30.406-3.526,35.893,9.944
			C288.911,201.075,287.791,220.39,275.133,227.556z"/>
		
			<linearGradient id="SVGID_00000044861757558174319090000007750651056442592901_" gradientUnits="userSpaceOnUse" x1="238.4969" y1="205.6896" x2="278.7259" y2="205.6896">
			<stop  offset="0" style="stop-color:#FDCA4D"/>
			<stop  offset="1" style="stop-color:#FEFC41;stop-opacity:0.8"/>
		</linearGradient>
		<path style="fill:url(#SVGID_00000044861757558174319090000007750651056442592901_);" d="M270.309,221.172
			c-8.962,5.074-25.155,6.499-30.229-2.463c-5.074-8.962,2.894-24.918,11.856-29.991s21.529-2.497,25.413,7.041
			C280.065,202.422,279.271,216.098,270.309,221.172z"/>
		<g>
			<text transform="matrix(1 0 0 1 250.1822 212.147)" style="fill:#FFFFFF; font-family:'Bebas'; font-size:16.2212px;">06</text>
		</g>
	</g>
	<g>
		<g>
			<g>
				<g>
					<g>
						
							<linearGradient id="SVGID_00000060007446948965584250000005718774894828341429_" gradientUnits="userSpaceOnUse" x1="354.3587" y1="197.5772" x2="404.9237" y2="197.5772">
							<stop  offset="0" style="stop-color:#E857F0"/>
							<stop  offset="1" style="stop-color:#8F39CE"/>
						</linearGradient>
						<path style="fill:url(#SVGID_00000060007446948965584250000005718774894828341429_);" d="M398.778,181.806
							c-3.205-5.105-8.605-7.922-14.326-9.116c-4.584-0.957-9.37-0.87-13.405-0.071c-1.977,0.391-3.775,0.95-5.276,1.643
							c-1.354,0.625-2.582,1.393-3.696,2.268c-2.661,2.091-4.637,4.828-5.922,7.909c-2.945,7.063-2.27,15.913,2.073,22.83
							c3.103,4.942,8.915,9.509,15.401,12.468c3.724,1.699,7.669,2.863,11.454,3.266c4.56,0.485,8.887-0.135,12.306-2.281
							c3.225-2.025,5.286-5.187,6.425-8.925C406.628,202.558,403.784,189.779,398.778,181.806z"/>
					</g>
					
						<linearGradient id="SVGID_00000003078087769233375040000017426106446328496260_" gradientUnits="userSpaceOnUse" x1="354.3587" y1="197.5772" x2="404.9237" y2="197.5772">
						<stop  offset="0" style="stop-color:#E857F0"/>
						<stop  offset="1" style="stop-color:#8F39CE"/>
					</linearGradient>
					<path style="fill:url(#SVGID_00000003078087769233375040000017426106446328496260_);" d="M398.778,181.806
						c-3.205-5.105-8.605-7.922-14.326-9.116c-4.584-0.957-9.37-0.87-13.405-0.071c-1.977,0.391-3.775,0.95-5.276,1.643
						c-1.354,0.625-2.582,1.393-3.696,2.268c-2.661,2.091-4.637,4.828-5.922,7.909c-2.945,7.063-2.27,15.913,2.073,22.83
						c3.103,4.942,8.915,9.509,15.401,12.468c3.724,1.699,7.669,2.863,11.454,3.266c4.56,0.485,8.887-0.135,12.306-2.281
						c3.225-2.025,5.286-5.187,6.425-8.925C406.628,202.558,403.784,189.779,398.778,181.806z"/>
				</g>
			</g>
			
				<linearGradient id="SVGID_00000106108712534184210920000016574940763838044335_" gradientUnits="userSpaceOnUse" x1="347.0201" y1="225.2616" x2="359.9933" y2="225.2616">
				<stop  offset="0" style="stop-color:#E857F0"/>
				<stop  offset="1" style="stop-color:#8F39CE"/>
			</linearGradient>
			<path style="fill:url(#SVGID_00000106108712534184210920000016574940763838044335_);" d="M359.902,223.401
				c-0.076-0.501-0.195-0.958-0.352-1.343c-0.141-0.347-0.32-0.664-0.527-0.954c-0.494-0.692-1.158-1.219-1.917-1.576
				c-1.739-0.82-3.967-0.752-5.753,0.259c-1.276,0.722-2.488,2.128-3.305,3.722c-0.469,0.915-0.806,1.892-0.951,2.837
				c-0.174,1.139-0.068,2.232,0.432,3.114c0.471,0.833,1.241,1.386,2.166,1.714c2.286,0.812,5.526,0.245,7.584-0.92
				c1.318-0.746,2.086-2.069,2.452-3.491C360.024,225.625,360.057,224.423,359.902,223.401z"/>
			<path style="fill:#E45AED;" d="M409.173,227.556c-12.658,7.166-35.528,9.179-42.694-3.479
				c-7.166-12.657,4.088-35.193,16.745-42.358c12.657-7.165,30.406-3.526,35.893,9.944
				C422.951,201.075,421.831,220.39,409.173,227.556z"/>
			
				<linearGradient id="SVGID_00000008150613694451627870000012381181059632786589_" gradientUnits="userSpaceOnUse" x1="372.537" y1="205.6896" x2="412.7659" y2="205.6896">
				<stop  offset="0" style="stop-color:#E857F0"/>
				<stop  offset="1" style="stop-color:#8F39CE"/>
			</linearGradient>
			<path style="fill:url(#SVGID_00000008150613694451627870000012381181059632786589_);" d="M404.35,221.172
				c-8.962,5.074-25.155,6.499-30.229-2.463c-5.073-8.962,2.894-24.918,11.856-29.991s21.529-2.497,25.413,7.041
				C414.105,202.422,413.312,216.098,404.35,221.172z"/>
		</g>
		<g>
			<text transform="matrix(1 0 0 1 385.4791 212.1479)" style="fill:#FFFFFF; font-family:'Bebas'; font-size:16.2212px;">10</text>
		</g>
	</g>
	<g>
		<g>
			<g>
				<g>
					
						<linearGradient id="SVGID_00000124872329618209785200000002911205542323933316_" gradientUnits="userSpaceOnUse" x1="112.2113" y1="429.0372" x2="112.2113" y2="380.1948">
						<stop  offset="0.005" style="stop-color:#63C76F"/>
						<stop  offset="0.8" style="stop-color:#92FCA5"/>
					</linearGradient>
					<path style="fill:url(#SVGID_00000124872329618209785200000002911205542323933316_);" d="M130.48,389.56
						c-3.06-4.873-8.215-7.563-13.677-8.703c-4.376-0.913-8.945-0.831-12.797-0.068c-1.887,0.374-3.604,0.907-5.037,1.568
						c-1.293,0.597-2.465,1.33-3.528,2.165c-2.54,1.996-4.427,4.609-5.653,7.55c-2.811,6.743-2.167,15.191,1.979,21.795
						c2.962,4.718,8.51,9.078,14.703,11.903c3.555,1.622,7.321,2.733,10.934,3.118c4.354,0.463,8.484-0.128,11.748-2.177
						c3.079-1.933,5.046-4.952,6.134-8.52C137.973,409.371,135.259,397.171,130.48,389.56z"/>
				</g>
				
					<linearGradient id="SVGID_00000128455808459568629760000001681741160901496971_" gradientUnits="userSpaceOnUse" x1="112.2113" y1="429.0372" x2="112.2113" y2="380.1948">
					<stop  offset="0.005" style="stop-color:#63C76F"/>
					<stop  offset="0.8" style="stop-color:#92FCA5"/>
				</linearGradient>
				<path style="fill:url(#SVGID_00000128455808459568629760000001681741160901496971_);" d="M130.48,389.56
					c-3.06-4.873-8.215-7.563-13.677-8.703c-4.376-0.913-8.945-0.831-12.797-0.068c-1.887,0.374-3.604,0.907-5.037,1.568
					c-1.293,0.597-2.465,1.33-3.528,2.165c-2.54,1.996-4.427,4.609-5.653,7.55c-2.811,6.743-2.167,15.191,1.979,21.795
					c2.962,4.718,8.51,9.078,14.703,11.903c3.555,1.622,7.321,2.733,10.934,3.118c4.354,0.463,8.484-0.128,11.748-2.177
					c3.079-1.933,5.046-4.952,6.134-8.52C137.973,409.371,135.259,397.171,130.48,389.56z"/>
			</g>
		</g>
		
			<linearGradient id="SVGID_00000076580092948445302150000009056890797569012141_" gradientUnits="userSpaceOnUse" x1="81.0698" y1="431.0447" x2="93.4546" y2="431.0447">
			<stop  offset="0.005" style="stop-color:#63C76F"/>
			<stop  offset="0.8" style="stop-color:#92FCA5"/>
		</linearGradient>
		<path style="fill:url(#SVGID_00000076580092948445302150000009056890797569012141_);" d="M93.368,429.269
			c-0.072-0.478-0.186-0.915-0.336-1.282c-0.135-0.331-0.305-0.634-0.503-0.91c-0.472-0.66-1.106-1.164-1.83-1.505
			c-1.66-0.783-3.787-0.718-5.492,0.247c-1.218,0.689-2.376,2.032-3.155,3.553c-0.448,0.874-0.77,1.806-0.907,2.708
			c-0.166,1.087-0.065,2.131,0.412,2.973c0.45,0.795,1.185,1.323,2.068,1.637c2.183,0.775,5.275,0.234,7.24-0.878
			c1.258-0.712,1.992-1.975,2.34-3.333C93.484,431.392,93.515,430.244,93.368,429.269z"/>
		<path style="fill:#63C76F;" d="M140.404,433.235c-12.083,6.841-33.917,8.763-40.757-3.321
			c-6.84-12.083,3.902-33.596,15.986-40.437c12.083-6.84,29.027-3.366,34.265,9.493
			C153.557,407.955,152.487,426.394,140.404,433.235z"/>
		
			<linearGradient id="SVGID_00000158007693882208852840000005195422776419499170_" gradientUnits="userSpaceOnUse" x1="105.4293" y1="412.3605" x2="143.8335" y2="412.3605">
			<stop  offset="0.005" style="stop-color:#63C76F"/>
			<stop  offset="0.8" style="stop-color:#92FCA5"/>
		</linearGradient>
		<path style="fill:url(#SVGID_00000158007693882208852840000005195422776419499170_);" d="M135.799,427.14
			c-8.555,4.843-24.014,6.204-28.858-2.351c-4.843-8.556,2.763-23.788,11.318-28.631c8.555-4.843,20.552-2.383,24.261,6.721
			C145.112,409.241,144.354,422.297,135.799,427.14z"/>
		<g>
			<text transform="matrix(1 0 0 1 115.9713 418.8174)" style="fill:#FFFFFF; font-family:'Bebas'; font-size:16.2212px;">04</text>
		</g>
	</g>
	<g>
		<g>
			
				<linearGradient id="SVGID_00000072264250853146348740000004309100297204301447_" gradientUnits="userSpaceOnUse" x1="218.1887" y1="404.604" x2="268.7537" y2="404.604">
				<stop  offset="0" style="stop-color:#E9424A"/>
				<stop  offset="0.32" style="stop-color:#FF7443"/>
			</linearGradient>
			<path style="fill:url(#SVGID_00000072264250853146348740000004309100297204301447_);" d="M262.608,388.832
				c-3.205-5.105-8.605-7.922-14.326-9.116c-4.584-0.957-9.37-0.87-13.405-0.071c-1.977,0.391-3.775,0.95-5.276,1.643
				c-1.354,0.625-2.582,1.393-3.696,2.268c-2.661,2.091-4.637,4.828-5.922,7.909c-2.945,7.063-2.27,15.913,2.073,22.83
				c3.103,4.942,8.915,9.509,15.401,12.469c3.724,1.699,7.669,2.863,11.454,3.266c4.56,0.485,8.887-0.134,12.306-2.281
				c3.225-2.025,5.286-5.187,6.425-8.925C270.457,409.585,267.614,396.805,262.608,388.832z"/>
			
				<linearGradient id="SVGID_00000024722662519916362330000016089275802417551022_" gradientUnits="userSpaceOnUse" x1="218.1887" y1="404.604" x2="268.7537" y2="404.604">
				<stop  offset="0" style="stop-color:#E9424A"/>
				<stop  offset="0.32" style="stop-color:#FF7443"/>
			</linearGradient>
			<path style="fill:url(#SVGID_00000024722662519916362330000016089275802417551022_);" d="M262.608,388.832
				c-3.205-5.105-8.605-7.922-14.326-9.116c-4.584-0.957-9.37-0.87-13.405-0.071c-1.977,0.391-3.775,0.95-5.276,1.643
				c-1.354,0.625-2.582,1.393-3.696,2.268c-2.661,2.091-4.637,4.828-5.922,7.909c-2.945,7.063-2.27,15.913,2.073,22.83
				c3.103,4.942,8.915,9.509,15.401,12.469c3.724,1.699,7.669,2.863,11.454,3.266c4.56,0.485,8.887-0.134,12.306-2.281
				c3.225-2.025,5.286-5.187,6.425-8.925C270.457,409.585,267.614,396.805,262.608,388.832z"/>
		</g>
		
			<linearGradient id="SVGID_00000080887694773439915140000014356427759961604241_" gradientUnits="userSpaceOnUse" x1="211.7515" y1="431.387" x2="224.7247" y2="431.387">
			<stop  offset="0" style="stop-color:#E9424A"/>
			<stop  offset="0.32" style="stop-color:#FF7443"/>
		</linearGradient>
		<path style="fill:url(#SVGID_00000080887694773439915140000014356427759961604241_);" d="M224.634,429.527
			c-0.076-0.5-0.195-0.958-0.352-1.343c-0.141-0.347-0.32-0.664-0.527-0.953c-0.494-0.692-1.159-1.219-1.917-1.577
			c-1.739-0.82-3.967-0.752-5.753,0.259c-1.276,0.722-2.488,2.128-3.305,3.722c-0.469,0.915-0.806,1.892-0.951,2.837
			c-0.174,1.139-0.068,2.232,0.432,3.114c0.471,0.833,1.241,1.386,2.166,1.715c2.286,0.812,5.526,0.245,7.584-0.92
			c1.318-0.746,2.087-2.069,2.452-3.491C224.755,431.751,224.788,430.548,224.634,429.527z"/>
		
			<linearGradient id="SVGID_00000138549973428346479910000010291414655335357357_" gradientUnits="userSpaceOnUse" x1="228.0728" y1="412.7165" x2="284.8901" y2="412.7165">
			<stop  offset="1" style="stop-color:#E9424A"/>
			<stop  offset="1" style="stop-color:#FF7443"/>
		</linearGradient>
		<path style="fill:url(#SVGID_00000138549973428346479910000010291414655335357357_);" d="M273.003,434.583
			c-12.658,7.165-35.528,9.179-42.694-3.478c-7.166-12.658,4.088-35.193,16.745-42.358c12.657-7.166,30.406-3.526,35.893,9.944
			C286.781,408.102,285.661,427.417,273.003,434.583z"/>
		
			<linearGradient id="SVGID_00000062885981382422217490000014298608947785126303_" gradientUnits="userSpaceOnUse" x1="236.3675" y1="412.7158" x2="276.5965" y2="412.7158">
			<stop  offset="0" style="stop-color:#E9424A"/>
			<stop  offset="0.32" style="stop-color:#FF7443"/>
		</linearGradient>
		<path style="fill:url(#SVGID_00000062885981382422217490000014298608947785126303_);" d="M268.18,428.198
			c-8.962,5.073-25.155,6.499-30.229-2.463c-5.073-8.962,2.894-24.918,11.856-29.991c8.962-5.073,21.529-2.497,25.413,7.041
			C277.935,409.448,277.142,423.125,268.18,428.198z"/>
		<g>
			<text transform="matrix(1 0 0 1 247.0679 419.1738)" style="fill:#FFFFFF; font-family:'Bebas'; font-size:16.2212px;">08 </text>
		</g>
	</g>
	<g>
		<g>
			
				<linearGradient id="SVGID_00000120548098781779552120000002031478430999006908_" gradientUnits="userSpaceOnUse" x1="377.5113" y1="430.1856" x2="377.5113" y2="379.0224">
				<stop  offset="0" style="stop-color:#5954E2"/>
				<stop  offset="0.178" style="stop-color:#6057E2"/>
				<stop  offset="0.4442" style="stop-color:#7561E1"/>
				<stop  offset="0.7638" style="stop-color:#9670E1"/>
				<stop  offset="1" style="stop-color:#B37EE0"/>
				<stop  offset="1" style="stop-color:#B780E0"/>
			</linearGradient>
			<path style="fill:url(#SVGID_00000120548098781779552120000002031478430999006908_);" d="M396.648,388.832
				c-3.205-5.105-8.605-7.922-14.326-9.116c-4.584-0.957-9.37-0.87-13.405-0.071c-1.977,0.391-3.775,0.95-5.276,1.643
				c-1.354,0.625-2.582,1.393-3.696,2.268c-2.661,2.091-4.637,4.828-5.922,7.909c-2.945,7.063-2.27,15.913,2.073,22.83
				c3.103,4.942,8.915,9.509,15.401,12.469c3.724,1.699,7.669,2.863,11.454,3.266c4.56,0.485,8.887-0.134,12.306-2.281
				c3.225-2.025,5.286-5.187,6.425-8.925C404.497,409.585,401.654,396.805,396.648,388.832z"/>
			
				<linearGradient id="SVGID_00000148626311950759516180000014310281928518285968_" gradientUnits="userSpaceOnUse" x1="377.5113" y1="430.1856" x2="377.5113" y2="379.0224">
				<stop  offset="0" style="stop-color:#5954E2"/>
				<stop  offset="0.178" style="stop-color:#6057E2"/>
				<stop  offset="0.4442" style="stop-color:#7561E1"/>
				<stop  offset="0.7638" style="stop-color:#9670E1"/>
				<stop  offset="1" style="stop-color:#B37EE0"/>
				<stop  offset="1" style="stop-color:#B780E0"/>
			</linearGradient>
			<path style="fill:url(#SVGID_00000148626311950759516180000014310281928518285968_);" d="M396.648,388.832
				c-3.205-5.105-8.605-7.922-14.326-9.116c-4.584-0.957-9.37-0.87-13.405-0.071c-1.977,0.391-3.775,0.95-5.276,1.643
				c-1.354,0.625-2.582,1.393-3.696,2.268c-2.661,2.091-4.637,4.828-5.922,7.909c-2.945,7.063-2.27,15.913,2.073,22.83
				c3.103,4.942,8.915,9.509,15.401,12.469c3.724,1.699,7.669,2.863,11.454,3.266c4.56,0.485,8.887-0.134,12.306-2.281
				c3.225-2.025,5.286-5.187,6.425-8.925C404.497,409.585,401.654,396.805,396.648,388.832z"/>
		</g>
		
			<linearGradient id="SVGID_00000108294600481194168940000005593976885261840548_" gradientUnits="userSpaceOnUse" x1="344.8901" y1="432.2885" x2="357.8633" y2="432.2885">
			<stop  offset="0" style="stop-color:#5954E2"/>
			<stop  offset="0.178" style="stop-color:#6057E2"/>
			<stop  offset="0.4442" style="stop-color:#7561E1"/>
			<stop  offset="0.7638" style="stop-color:#9670E1"/>
			<stop  offset="1" style="stop-color:#B37EE0"/>
			<stop  offset="1" style="stop-color:#B780E0"/>
		</linearGradient>
		<path style="fill:url(#SVGID_00000108294600481194168940000005593976885261840548_);" d="M357.772,430.428
			c-0.076-0.5-0.195-0.958-0.352-1.343c-0.141-0.347-0.32-0.664-0.527-0.953c-0.494-0.692-1.159-1.219-1.917-1.577
			c-1.739-0.82-3.967-0.752-5.753,0.259c-1.276,0.722-2.488,2.128-3.305,3.722c-0.469,0.915-0.806,1.892-0.951,2.837
			c-0.174,1.139-0.068,2.232,0.432,3.114c0.471,0.833,1.241,1.386,2.166,1.715c2.286,0.812,5.526,0.245,7.584-0.92
			c1.318-0.746,2.087-2.069,2.452-3.491C357.894,432.652,357.927,431.45,357.772,430.428z"/>
		<path style="fill:#5954E2;" d="M407.043,434.583c-12.658,7.165-35.528,9.179-42.694-3.478
			c-7.165-12.658,4.088-35.193,16.745-42.358c12.658-7.166,30.406-3.526,35.893,9.944
			C420.821,408.102,419.701,427.417,407.043,434.583z"/>
		
			<linearGradient id="SVGID_00000101061020638023165870000005181405902684200081_" gradientUnits="userSpaceOnUse" x1="370.4071" y1="412.7165" x2="410.636" y2="412.7165">
			<stop  offset="0" style="stop-color:#5954E2"/>
			<stop  offset="0.178" style="stop-color:#6057E2"/>
			<stop  offset="0.4442" style="stop-color:#7561E1"/>
			<stop  offset="0.7638" style="stop-color:#9670E1"/>
			<stop  offset="1" style="stop-color:#B37EE0"/>
			<stop  offset="1" style="stop-color:#B780E0"/>
		</linearGradient>
		<path style="fill:url(#SVGID_00000101061020638023165870000005181405902684200081_);" d="M402.22,428.199
			c-8.962,5.073-25.156,6.499-30.229-2.463c-5.073-8.962,2.894-24.918,11.856-29.991c8.962-5.074,21.529-2.497,25.413,7.041
			C411.975,409.449,411.182,423.125,402.22,428.199z"/>
		<g>
			<text transform="matrix(1 0 0 1 383.315 419.1748)" style="fill:#FFFFFF; font-family:'Bebas'; font-size:16.2212px;">12</text>
		</g>
	</g>
	<g>
		<g>
			<path style="fill:#448AE2;" d="M131.709,79.823c-3.06-4.873-8.215-7.563-13.677-8.703c-4.376-0.913-8.945-0.831-12.797-0.068
				c-1.887,0.374-3.604,0.907-5.037,1.568c-1.293,0.597-2.465,1.33-3.528,2.165c-2.54,1.996-4.427,4.609-5.653,7.55
				c-2.811,6.743-2.167,15.191,1.979,21.795c2.962,4.718,8.51,9.078,14.703,11.903c3.555,1.622,7.321,2.733,10.934,3.118
				c4.354,0.463,8.484-0.128,11.748-2.178c3.079-1.933,5.046-4.951,6.134-8.52C139.202,99.634,136.488,87.434,131.709,79.823z"/>
			
				<linearGradient id="SVGID_00000103945438256826089850000011820690256221733771_" gradientUnits="userSpaceOnUse" x1="89.3041" y1="94.879" x2="137.5755" y2="94.879">
				<stop  offset="0" style="stop-color:#7CDEFF"/>
				<stop  offset="1" style="stop-color:#0E5EE3"/>
			</linearGradient>
			<path style="fill:url(#SVGID_00000103945438256826089850000011820690256221733771_);" d="M131.709,79.823
				c-3.06-4.873-8.215-7.563-13.677-8.703c-4.376-0.913-8.945-0.831-12.797-0.068c-1.887,0.374-3.604,0.907-5.037,1.568
				c-1.293,0.597-2.465,1.33-3.528,2.165c-2.54,1.996-4.427,4.609-5.653,7.55c-2.811,6.743-2.167,15.191,1.979,21.795
				c2.962,4.718,8.51,9.078,14.703,11.903c3.555,1.622,7.321,2.733,10.934,3.118c4.354,0.463,8.484-0.128,11.748-2.178
				c3.079-1.933,5.046-4.951,6.134-8.52C139.202,99.634,136.488,87.434,131.709,79.823z"/>
		</g>
		
			<linearGradient id="SVGID_00000170960388530790520670000002288097322444426658_" gradientUnits="userSpaceOnUse" x1="82.2983" y1="121.3077" x2="94.683" y2="121.3077">
			<stop  offset="0" style="stop-color:#7CDEFF"/>
			<stop  offset="1" style="stop-color:#0E5EE3"/>
		</linearGradient>
		<path style="fill:url(#SVGID_00000170960388530790520670000002288097322444426658_);" d="M94.596,119.532
			c-0.072-0.478-0.186-0.915-0.336-1.282c-0.135-0.331-0.305-0.634-0.503-0.91c-0.472-0.66-1.106-1.164-1.83-1.505
			c-1.66-0.783-3.787-0.718-5.492,0.247c-1.218,0.689-2.376,2.032-3.155,3.553c-0.448,0.874-0.77,1.806-0.907,2.708
			c-0.166,1.087-0.065,2.131,0.412,2.973c0.45,0.795,1.185,1.323,2.068,1.637c2.183,0.775,5.275,0.234,7.24-0.878
			c1.258-0.712,1.992-1.975,2.34-3.333C94.712,121.655,94.744,120.507,94.596,119.532z"/>
		<path style="fill:#448AE2;" d="M141.632,123.498c-12.083,6.84-33.917,8.763-40.757-3.321c-6.84-12.083,3.902-33.596,15.986-40.437
			s29.027-3.366,34.265,9.493C154.785,98.218,153.716,116.657,141.632,123.498z"/>
		
			<linearGradient id="SVGID_00000090293683480312731390000001573165229568182172_" gradientUnits="userSpaceOnUse" x1="106.6583" y1="102.6228" x2="145.0625" y2="102.6228">
			<stop  offset="0.005" style="stop-color:#7CDEFF"/>
			<stop  offset="1" style="stop-color:#0E5EE3"/>
		</linearGradient>
		<path style="fill:url(#SVGID_00000090293683480312731390000001573165229568182172_);" d="M137.028,117.403
			c-8.555,4.843-24.014,6.204-28.858-2.351c-4.843-8.555,2.763-23.788,11.318-28.631c8.556-4.843,20.552-2.383,24.261,6.721
			C146.341,99.504,145.583,112.559,137.028,117.403z"/>
		<g>
			<text transform="matrix(1 0 0 1 118.7618 109.0811)" style="fill:#FFFFFF; font-family:'Bebas'; font-size:16.2212px;">01</text>
		</g>
	</g>
	<g>
		<g>
			<g>
				<g>
					<g>
						
							<linearGradient id="SVGID_00000085936717830574342860000004430705638309820095_" gradientUnits="userSpaceOnUse" x1="244.1215" y1="119.3002" x2="244.1215" y2="70.4578">
							<stop  offset="0.005" style="stop-color:#92FCA5"/>
							<stop  offset="0.98" style="stop-color:#99CC66"/>
						</linearGradient>
						<path style="fill:url(#SVGID_00000085936717830574342860000004430705638309820095_);" d="M262.39,79.823
							c-3.06-4.873-8.215-7.563-13.677-8.703c-4.376-0.913-8.945-0.831-12.797-0.068c-1.887,0.374-3.604,0.907-5.037,1.568
							c-1.293,0.597-2.465,1.33-3.528,2.165c-2.54,1.996-4.427,4.609-5.653,7.55c-2.811,6.743-2.167,15.191,1.979,21.795
							c2.963,4.718,8.51,9.078,14.703,11.903c3.555,1.622,7.321,2.733,10.934,3.118c4.353,0.463,8.484-0.128,11.748-2.178
							c3.079-1.933,5.046-4.951,6.134-8.52C269.884,99.634,267.169,87.434,262.39,79.823z"/>
					</g>
					
						<linearGradient id="SVGID_00000084530044432780891530000008101260195293300910_" gradientUnits="userSpaceOnUse" x1="244.1215" y1="119.3002" x2="244.1215" y2="70.4578">
						<stop  offset="0.005" style="stop-color:#92FCA5"/>
						<stop  offset="0.98" style="stop-color:#99CC66"/>
					</linearGradient>
					<path style="fill:url(#SVGID_00000084530044432780891530000008101260195293300910_);" d="M262.39,79.823
						c-3.06-4.873-8.215-7.563-13.677-8.703c-4.376-0.913-8.945-0.831-12.797-0.068c-1.887,0.374-3.604,0.907-5.037,1.568
						c-1.293,0.597-2.465,1.33-3.528,2.165c-2.54,1.996-4.427,4.609-5.653,7.55c-2.811,6.743-2.167,15.191,1.979,21.795
						c2.963,4.718,8.51,9.078,14.703,11.903c3.555,1.622,7.321,2.733,10.934,3.118c4.353,0.463,8.484-0.128,11.748-2.178
						c3.079-1.933,5.046-4.951,6.134-8.52C269.884,99.634,267.169,87.434,262.39,79.823z"/>
				</g>
			</g>
			
				<linearGradient id="SVGID_00000059286160378879802080000012426016284426986899_" gradientUnits="userSpaceOnUse" x1="212.9799" y1="121.3077" x2="225.3647" y2="121.3077">
				<stop  offset="0.005" style="stop-color:#92FCA5"/>
				<stop  offset="0.98" style="stop-color:#99CC66"/>
			</linearGradient>
			<path style="fill:url(#SVGID_00000059286160378879802080000012426016284426986899_);" d="M225.278,119.532
				c-0.072-0.478-0.186-0.915-0.336-1.282c-0.135-0.331-0.305-0.634-0.503-0.91c-0.472-0.66-1.106-1.164-1.83-1.505
				c-1.66-0.783-3.787-0.718-5.492,0.247c-1.218,0.689-2.376,2.032-3.155,3.553c-0.448,0.874-0.77,1.806-0.908,2.708
				c-0.166,1.087-0.065,2.131,0.412,2.973c0.45,0.795,1.185,1.323,2.068,1.637c2.183,0.775,5.275,0.234,7.24-0.878
				c1.258-0.712,1.992-1.975,2.34-3.333C225.394,121.655,225.425,120.507,225.278,119.532z"/>
			<path style="fill:#AAD851;" d="M272.314,123.498c-12.083,6.84-33.917,8.763-40.757-3.321
				c-6.84-12.083,3.902-33.596,15.986-40.437c12.083-6.84,29.027-3.366,34.265,9.493
				C285.467,98.218,284.397,116.657,272.314,123.498z"/>
			
				<linearGradient id="SVGID_00000096039112448314218910000002960203191510630582_" gradientUnits="userSpaceOnUse" x1="237.3395" y1="102.6235" x2="275.7437" y2="102.6235">
				<stop  offset="0.005" style="stop-color:#92FCA5"/>
				<stop  offset="0.98" style="stop-color:#99CC66"/>
			</linearGradient>
			<path style="fill:url(#SVGID_00000096039112448314218910000002960203191510630582_);" d="M267.709,117.403
				c-8.556,4.843-24.015,6.204-28.858-2.351c-4.843-8.555,2.763-23.788,11.319-28.631c8.555-4.843,20.552-2.383,24.261,6.721
				C277.022,99.505,276.264,112.56,267.709,117.403z"/>
		</g>
		<g>
			<text transform="matrix(1 0 0 1 248.0684 109.0784)" style="fill:#FFFFFF; font-family:'Bebas'; font-size:16.2212px;">05</text>
		</g>
	</g>
	<g>
		<g>
			<g>
				<g>
					<path style="fill:#F54377;" d="M395.42,79.095c-3.205-5.105-8.605-7.922-14.326-9.116c-4.584-0.957-9.37-0.87-13.405-0.071
						c-1.977,0.391-3.775,0.95-5.276,1.643c-1.354,0.625-2.582,1.393-3.696,2.268c-2.661,2.091-4.637,4.828-5.922,7.909
						c-2.945,7.063-2.27,15.913,2.073,22.83c3.103,4.942,8.915,9.509,15.401,12.468c3.724,1.699,7.669,2.863,11.454,3.266
						c4.56,0.485,8.887-0.134,12.306-2.281c3.225-2.025,5.286-5.187,6.425-8.925C403.269,99.848,400.426,87.068,395.42,79.095z"/>
				</g>
				
					<linearGradient id="SVGID_00000062161411662653144590000000110578026509569669_" gradientUnits="userSpaceOnUse" x1="376.2828" y1="120.4486" x2="376.2828" y2="69.2854">
					<stop  offset="0" style="stop-color:#F54377"/>
					<stop  offset="1" style="stop-color:#F94BC8"/>
				</linearGradient>
				<path style="fill:url(#SVGID_00000062161411662653144590000000110578026509569669_);" d="M395.42,79.095
					c-3.205-5.105-8.605-7.922-14.326-9.116c-4.584-0.957-9.37-0.87-13.405-0.071c-1.977,0.391-3.775,0.95-5.276,1.643
					c-1.354,0.625-2.582,1.393-3.696,2.268c-2.661,2.091-4.637,4.828-5.922,7.909c-2.945,7.063-2.27,15.913,2.073,22.83
					c3.103,4.942,8.915,9.509,15.401,12.468c3.724,1.699,7.669,2.863,11.454,3.266c4.56,0.485,8.887-0.134,12.306-2.281
					c3.225-2.025,5.286-5.187,6.425-8.925C403.269,99.848,400.426,87.068,395.42,79.095z"/>
			</g>
		</g>
		
			<linearGradient id="SVGID_00000010999898683986720150000003769627930346119083_" gradientUnits="userSpaceOnUse" x1="343.6616" y1="122.5514" x2="356.6349" y2="122.5514">
			<stop  offset="0" style="stop-color:#F54377"/>
			<stop  offset="0.13" style="stop-color:#F94BC8"/>
		</linearGradient>
		<path style="fill:url(#SVGID_00000010999898683986720150000003769627930346119083_);" d="M356.544,120.691
			c-0.076-0.501-0.195-0.958-0.352-1.343c-0.141-0.347-0.32-0.664-0.527-0.953c-0.494-0.692-1.158-1.219-1.917-1.576
			c-1.739-0.82-3.967-0.752-5.753,0.259c-1.276,0.722-2.488,2.128-3.305,3.722c-0.469,0.915-0.806,1.892-0.951,2.837
			c-0.174,1.139-0.068,2.232,0.432,3.114c0.471,0.833,1.241,1.386,2.166,1.715c2.286,0.812,5.526,0.245,7.584-0.92
			c1.318-0.746,2.086-2.069,2.452-3.491C356.665,122.915,356.698,121.713,356.544,120.691z"/>
		<path style="fill:#F54377;" d="M405.815,124.846c-12.658,7.166-35.528,9.179-42.694-3.479
			c-7.166-12.658,4.088-35.193,16.745-42.358c12.657-7.166,30.406-3.526,35.893,9.944
			C419.593,98.365,418.472,117.68,405.815,124.846z"/>
		
			<linearGradient id="SVGID_00000056396641946167299910000013809726676401434540_" gradientUnits="userSpaceOnUse" x1="369.1786" y1="102.9795" x2="409.4075" y2="102.9795">
			<stop  offset="0" style="stop-color:#F54377"/>
			<stop  offset="0.13" style="stop-color:#F94BC8"/>
		</linearGradient>
		<path style="fill:url(#SVGID_00000056396641946167299910000013809726676401434540_);" d="M400.991,118.462
			c-8.962,5.074-25.155,6.499-30.229-2.463c-5.073-8.962,2.894-24.918,11.856-29.991c8.962-5.074,21.529-2.497,25.413,7.041
			C410.746,99.712,409.953,113.388,400.991,118.462z"/>
		<text transform="matrix(1 0 0 1 380.8931 109.437)" style="fill:#FFFFFF; font-family:'Bebas'; font-size:16.2212px;">09</text>
	</g>
	<g>
		<g>
			
				<linearGradient id="SVGID_00000163036973712622660500000005847723496490219409_" gradientUnits="userSpaceOnUse" x1="220.3186" y1="301.8939" x2="270.8836" y2="301.8939">
				<stop  offset="0" style="stop-color:#F9854A"/>
				<stop  offset="0.32" style="stop-color:#FCB026"/>
			</linearGradient>
			<path style="fill:url(#SVGID_00000163036973712622660500000005847723496490219409_);" d="M264.738,286.122
				c-3.205-5.105-8.605-7.922-14.326-9.116c-4.584-0.957-9.37-0.87-13.405-0.071c-1.977,0.391-3.775,0.95-5.276,1.643
				c-1.354,0.625-2.582,1.393-3.696,2.268c-2.661,2.091-4.637,4.828-5.922,7.909c-2.945,7.063-2.27,15.913,2.073,22.83
				c3.103,4.942,8.915,9.509,15.401,12.469c3.724,1.699,7.669,2.863,11.454,3.266c4.56,0.485,8.887-0.134,12.306-2.281
				c3.225-2.025,5.286-5.187,6.425-8.925C272.587,306.874,269.744,294.095,264.738,286.122z"/>
			
				<linearGradient id="SVGID_00000114065704671794423030000006844798177531315093_" gradientUnits="userSpaceOnUse" x1="220.3186" y1="301.8939" x2="270.8836" y2="301.8939">
				<stop  offset="0" style="stop-color:#F9854A"/>
				<stop  offset="0.32" style="stop-color:#FCB026"/>
			</linearGradient>
			<path style="fill:url(#SVGID_00000114065704671794423030000006844798177531315093_);" d="M264.738,286.122
				c-3.205-5.105-8.605-7.922-14.326-9.116c-4.584-0.957-9.37-0.87-13.405-0.071c-1.977,0.391-3.775,0.95-5.276,1.643
				c-1.354,0.625-2.582,1.393-3.696,2.268c-2.661,2.091-4.637,4.828-5.922,7.909c-2.945,7.063-2.27,15.913,2.073,22.83
				c3.103,4.942,8.915,9.509,15.401,12.469c3.724,1.699,7.669,2.863,11.454,3.266c4.56,0.485,8.887-0.134,12.306-2.281
				c3.225-2.025,5.286-5.187,6.425-8.925C272.587,306.874,269.744,294.095,264.738,286.122z"/>
		</g>
		
			<linearGradient id="SVGID_00000118369321202260193210000006091486533550742174_" gradientUnits="userSpaceOnUse" x1="212.98" y1="329.5783" x2="225.9532" y2="329.5783">
			<stop  offset="0" style="stop-color:#F9854A"/>
			<stop  offset="0.32" style="stop-color:#FCB026"/>
		</linearGradient>
		<path style="fill:url(#SVGID_00000118369321202260193210000006091486533550742174_);" d="M225.862,327.718
			c-0.076-0.5-0.195-0.958-0.352-1.343c-0.141-0.347-0.32-0.664-0.527-0.953c-0.494-0.692-1.159-1.219-1.917-1.577
			c-1.739-0.82-3.967-0.752-5.753,0.259c-1.276,0.722-2.488,2.128-3.305,3.722c-0.469,0.915-0.806,1.892-0.951,2.837
			c-0.174,1.139-0.068,2.232,0.432,3.114c0.471,0.833,1.241,1.386,2.166,1.714c2.286,0.812,5.526,0.245,7.584-0.92
			c1.318-0.746,2.087-2.069,2.452-3.491C225.984,329.942,226.017,328.74,225.862,327.718z"/>
		<path style="fill:#F9854A;" d="M275.133,331.873c-12.657,7.165-35.528,9.179-42.694-3.478
			c-7.165-12.657,4.088-35.193,16.745-42.358c12.657-7.165,30.406-3.526,35.893,9.944
			C288.911,305.392,287.791,324.707,275.133,331.873z"/>
		
			<linearGradient id="SVGID_00000087396602935036744620000007283841741933998978_" gradientUnits="userSpaceOnUse" x1="238.4969" y1="310.0063" x2="278.7259" y2="310.0063">
			<stop  offset="0" style="stop-color:#F9854A"/>
			<stop  offset="0.32" style="stop-color:#FCB026"/>
		</linearGradient>
		<path style="fill:url(#SVGID_00000087396602935036744620000007283841741933998978_);" d="M270.309,325.488
			c-8.962,5.074-25.155,6.499-30.229-2.463c-5.074-8.962,2.894-24.918,11.856-29.991c8.962-5.073,21.529-2.497,25.413,7.041
			C280.065,306.739,279.271,320.415,270.309,325.488z"/>
		<g>
			<text transform="matrix(1 0 0 1 250.3897 316.4629)" style="fill:#FFFFFF; font-family:'Bebas'; font-size:16.2212px;">07</text>
		</g>
	</g>
	<g>
		
			<linearGradient id="SVGID_00000079449574412293448220000014815158731806315656_" gradientUnits="userSpaceOnUse" x1="78.9399" y1="329.5783" x2="91.9131" y2="329.5783">
			<stop  offset="0" style="stop-color:#5FD6C3;stop-opacity:0.5"/>
			<stop  offset="1" style="stop-color:#48A5D1"/>
		</linearGradient>
		<path style="fill:url(#SVGID_00000079449574412293448220000014815158731806315656_);" d="M91.822,327.718
			c-0.076-0.5-0.195-0.958-0.352-1.343c-0.141-0.347-0.32-0.664-0.527-0.953c-0.494-0.692-1.158-1.219-1.917-1.577
			c-1.739-0.82-3.967-0.752-5.753,0.259c-1.276,0.722-2.488,2.128-3.305,3.722c-0.469,0.915-0.806,1.892-0.951,2.837
			c-0.174,1.139-0.068,2.232,0.432,3.114c0.471,0.833,1.241,1.386,2.166,1.714c2.286,0.812,5.526,0.245,7.584-0.92
			c1.318-0.746,2.087-2.069,2.451-3.491C91.944,329.942,91.977,328.74,91.822,327.718z"/>
		<g>
			<g>
				<g>
					
						<linearGradient id="SVGID_00000029047647042875170480000000744828473764286652_" gradientUnits="userSpaceOnUse" x1="86.2785" y1="301.8939" x2="136.8436" y2="301.8939">
						<stop  offset="0" style="stop-color:#5FD6C3;stop-opacity:0.5"/>
						<stop  offset="1" style="stop-color:#48A5D1"/>
					</linearGradient>
					<path style="fill:url(#SVGID_00000029047647042875170480000000744828473764286652_);" d="M130.698,286.122
						c-3.205-5.105-8.605-7.922-14.326-9.116c-4.584-0.957-9.37-0.87-13.405-0.071c-1.977,0.391-3.775,0.95-5.276,1.643
						c-1.354,0.625-2.582,1.393-3.696,2.268c-2.661,2.091-4.637,4.828-5.922,7.909c-2.945,7.063-2.27,15.913,2.073,22.83
						c3.103,4.942,8.915,9.509,15.401,12.469c3.724,1.699,7.669,2.863,11.454,3.266c4.56,0.485,8.887-0.134,12.306-2.281
						c3.225-2.025,5.286-5.187,6.425-8.925C138.547,306.874,135.704,294.095,130.698,286.122z"/>
				</g>
				
					<linearGradient id="SVGID_00000091722844149254156660000013534374659226853305_" gradientUnits="userSpaceOnUse" x1="86.2785" y1="301.8939" x2="136.8436" y2="301.8939">
					<stop  offset="0" style="stop-color:#5FD6C3;stop-opacity:0.5"/>
					<stop  offset="1" style="stop-color:#48A5D1"/>
				</linearGradient>
				<path style="fill:url(#SVGID_00000091722844149254156660000013534374659226853305_);" d="M130.698,286.122
					c-3.205-5.105-8.605-7.922-14.326-9.116c-4.584-0.957-9.37-0.87-13.405-0.071c-1.977,0.391-3.775,0.95-5.276,1.643
					c-1.354,0.625-2.582,1.393-3.696,2.268c-2.661,2.091-4.637,4.828-5.922,7.909c-2.945,7.063-2.27,15.913,2.073,22.83
					c3.103,4.942,8.915,9.509,15.401,12.469c3.724,1.699,7.669,2.863,11.454,3.266c4.56,0.485,8.887-0.134,12.306-2.281
					c3.225-2.025,5.286-5.187,6.425-8.925C138.547,306.874,135.704,294.095,130.698,286.122z"/>
			</g>
		</g>
		<path style="fill:#55C0EC;" d="M141.093,331.873c-12.657,7.165-35.528,9.179-42.694-3.478
			c-7.165-12.657,4.088-35.193,16.745-42.358c12.657-7.165,30.406-3.526,35.893,9.944
			C154.871,305.392,153.751,324.707,141.093,331.873z"/>
		
			<linearGradient id="SVGID_00000119815887627273622590000002246203160140250535_" gradientUnits="userSpaceOnUse" x1="104.4574" y1="310.0056" x2="144.6863" y2="310.0056">
			<stop  offset="0" style="stop-color:#48A5D1"/>
			<stop  offset="1" style="stop-color:#5FD6C3;stop-opacity:0.8"/>
		</linearGradient>
		<path style="fill:url(#SVGID_00000119815887627273622590000002246203160140250535_);" d="M136.27,325.488
			c-8.962,5.074-25.156,6.499-30.229-2.463c-5.073-8.962,2.894-24.918,11.856-29.991s21.528-2.497,25.413,7.041
			C146.025,306.738,145.232,320.414,136.27,325.488z"/>
		<g>
			<text transform="matrix(1 0 0 1 116.0914 316.4629)" style="fill:#FFFFFF; font-family:'Bebas'; font-size:16.2212px;">03</text>
		</g>
	</g>
	<g>
		
			<linearGradient id="SVGID_00000115497481440120544700000009371543534783526535_" gradientUnits="userSpaceOnUse" x1="347.0201" y1="329.5783" x2="359.9933" y2="329.5783">
			<stop  offset="0" style="stop-color:#9F35ED"/>
			<stop  offset="1" style="stop-color:#BA84E1"/>
		</linearGradient>
		<path style="fill:url(#SVGID_00000115497481440120544700000009371543534783526535_);" d="M359.902,327.718
			c-0.076-0.5-0.195-0.958-0.352-1.343c-0.141-0.347-0.32-0.664-0.527-0.953c-0.494-0.692-1.158-1.219-1.917-1.577
			c-1.739-0.82-3.967-0.752-5.753,0.259c-1.276,0.722-2.488,2.128-3.305,3.722c-0.469,0.915-0.806,1.892-0.951,2.837
			c-0.174,1.139-0.068,2.232,0.432,3.114c0.471,0.833,1.241,1.386,2.166,1.714c2.286,0.812,5.526,0.245,7.584-0.92
			c1.318-0.746,2.086-2.069,2.452-3.491C360.024,329.942,360.057,328.74,359.902,327.718z"/>
		<g>
			<g>
				<g>
					
						<linearGradient id="SVGID_00000114751908335152129930000004081534024511040937_" gradientUnits="userSpaceOnUse" x1="354.3587" y1="301.8939" x2="404.9237" y2="301.8939">
						<stop  offset="0" style="stop-color:#4ED1ED"/>
						<stop  offset="0.52" style="stop-color:#48A5D1"/>
					</linearGradient>
					<path style="fill:url(#SVGID_00000114751908335152129930000004081534024511040937_);" d="M398.778,286.122
						c-3.205-5.105-8.605-7.922-14.326-9.116c-4.584-0.957-9.37-0.87-13.405-0.071c-1.977,0.391-3.775,0.95-5.276,1.643
						c-1.354,0.625-2.582,1.393-3.696,2.268c-2.661,2.091-4.637,4.828-5.922,7.909c-2.945,7.063-2.27,15.913,2.073,22.83
						c3.103,4.942,8.915,9.509,15.401,12.469c3.724,1.699,7.669,2.863,11.454,3.266c4.56,0.485,8.887-0.134,12.306-2.281
						c3.225-2.025,5.286-5.187,6.425-8.925C406.628,306.874,403.784,294.095,398.778,286.122z"/>
				</g>
				<g>
					
						<linearGradient id="SVGID_00000141437840051497312180000016227677576984848538_" gradientUnits="userSpaceOnUse" x1="379.6412" y1="327.4754" x2="379.6412" y2="276.3123">
						<stop  offset="0" style="stop-color:#9F35ED"/>
						<stop  offset="1" style="stop-color:#BA84E1"/>
					</linearGradient>
					<path style="fill:url(#SVGID_00000141437840051497312180000016227677576984848538_);" d="M398.778,286.122
						c-3.205-5.105-8.605-7.922-14.326-9.116c-4.584-0.957-9.37-0.87-13.405-0.071c-1.977,0.391-3.775,0.95-5.276,1.643
						c-1.354,0.625-2.582,1.393-3.696,2.268c-2.661,2.091-4.637,4.828-5.922,7.909c-2.945,7.063-2.27,15.913,2.073,22.83
						c3.103,4.942,8.915,9.509,15.401,12.469c3.724,1.699,7.669,2.863,11.454,3.266c4.56,0.485,8.887-0.134,12.306-2.281
						c3.225-2.025,5.286-5.187,6.425-8.925C406.628,306.874,403.784,294.095,398.778,286.122z"/>
				</g>
			</g>
		</g>
		
			<linearGradient id="SVGID_00000104693331104413674270000012614618517346089382_" gradientUnits="userSpaceOnUse" x1="364.2428" y1="310.0064" x2="421.0601" y2="310.0064">
			<stop  offset="1" style="stop-color:#9F35ED"/>
			<stop  offset="1" style="stop-color:#BA84E1"/>
		</linearGradient>
		<path style="fill:url(#SVGID_00000104693331104413674270000012614618517346089382_);" d="M409.173,331.873
			c-12.658,7.165-35.528,9.179-42.694-3.478c-7.166-12.657,4.088-35.193,16.745-42.358c12.657-7.165,30.406-3.526,35.893,9.944
			C422.951,305.392,421.831,324.707,409.173,331.873z"/>
		
			<linearGradient id="SVGID_00000036953533367630669100000011722547160086361279_" gradientUnits="userSpaceOnUse" x1="372.5375" y1="310.0056" x2="412.7664" y2="310.0056">
			<stop  offset="0" style="stop-color:#9F35ED"/>
			<stop  offset="1" style="stop-color:#BA84E1"/>
		</linearGradient>
		<path style="fill:url(#SVGID_00000036953533367630669100000011722547160086361279_);" d="M404.35,325.488
			c-8.962,5.074-25.155,6.499-30.229-2.463c-5.073-8.962,2.894-24.918,11.856-29.991c8.962-5.073,21.529-2.497,25.413,7.041
			C414.105,306.738,413.312,320.414,404.35,325.488z"/>
		<g>
			<text transform="matrix(1 0 0 1 386.9771 316.4629)" style="fill:#FFFFFF; font-family:'Bebas'; font-size:16.2212px;">11</text>
		</g>
	</g>
</g>
<g id="DESIGNED_BY_FREEPIK">
	<g>
		<g id="XMLID_29_">
			<g id="XMLID_48_">
				<path id="XMLID_56_" style="fill:#9EB7C7;" d="M260.104,465.465c-0.433,0.443-0.804,0.932-1.108,1.453l-0.465-0.241
					c-0.067-0.297-0.35-0.502-0.659-0.466c-0.331,0.039-0.567,0.339-0.529,0.67c0.039,0.331,0.339,0.567,0.67,0.528
					c0.065-0.007,0.127-0.025,0.184-0.052l0.451,0.234c-0.251,0.554-0.433,1.139-0.539,1.743l0.747,0.132
					c0.229-1.306,0.85-2.507,1.792-3.473L260.104,465.465z"/>
				<path id="XMLID_55_" style="fill:#9EB7C7;" d="M265.592,463.163c-0.171,0-0.341,0.006-0.509,0.017l-0.074-0.626
					c0.188-0.149,0.296-0.389,0.266-0.645c-0.046-0.393-0.402-0.674-0.795-0.628c-0.393,0.046-0.675,0.402-0.628,0.796
					c0.03,0.254,0.19,0.461,0.404,0.563l0.073,0.624c-0.714,0.116-1.402,0.332-2.06,0.645l0.327,0.685
					c0.935-0.447,1.941-0.674,2.995-0.674c0.497,0,0.993,0.053,1.476,0.158l0.16-0.741
					C266.692,463.222,266.143,463.163,265.592,463.163z"/>
				<path id="XMLID_54_" style="fill:#9EB7C7;" d="M272.194,465.71c0.331-0.04,0.566-0.341,0.525-0.672
					c-0.04-0.331-0.341-0.566-0.672-0.525c-0.31,0.038-0.535,0.304-0.53,0.608l-0.416,0.363c-0.418-0.43-0.89-0.813-1.407-1.14
					l-0.404,0.642c1.135,0.715,2.021,1.727,2.564,2.925l0.69-0.313c-0.251-0.554-0.567-1.071-0.942-1.545l0.402-0.351
					C272.065,465.715,272.129,465.719,272.194,465.71z"/>
				<path id="XMLID_53_" style="fill:#9EB7C7;" d="M265.045,473.371c-0.386,0.023-0.775,0.035-1.157,0.035
					c-0.88,0-1.733-0.061-2.479-0.18c-0.391-0.061-0.846-0.154-1.27-0.292c1.047,1.861,3.069,3.125,5.389,3.125
					c2.855,0,5.263-1.916,5.949-4.503c-0.682,0.449-1.505,0.825-2.458,1.122C267.839,473.047,266.464,473.286,265.045,473.371z"/>
				<path id="XMLID_49_" style="fill:#9EB7C7;" d="M265.592,464.68c-3.352,0-6.079,2.666-6.079,5.943
					c0,0.425,0.046,0.849,0.137,1.261c0.674,0.483,2.706,0.891,5.348,0.731c2.88-0.174,5.297-0.958,6.672-2.159
					c-0.005-0.194-0.021-0.39-0.045-0.581C271.244,466.913,268.65,464.68,265.592,464.68z M263.433,471.194
					c-1.02,0-1.85-0.83-1.85-1.85c0-1.021,0.83-1.85,1.85-1.85c1.02,0,1.85,0.83,1.85,1.85
					C265.282,470.364,264.452,471.194,263.433,471.194z M268.17,470.286c-0.75,0-1.36-0.61-1.36-1.36s0.61-1.36,1.36-1.36
					s1.36,0.61,1.36,1.36S268.92,470.286,268.17,470.286z"/>
			</g>
			<path id="XMLID_46_" style="fill:#9EB7C7;" d="M281.596,466.547c-0.295-0.116-0.806-0.31-1.383-0.238
				c-0.551,0.069-0.844,0.341-0.844,1.007v0.866h2.228v1.717h-2.228v5.455h-1.932v-5.455h-1.339v-1.717h1.339v-0.889
				c0-1.68,0.896-2.782,2.568-2.782c0.643,0,1.157,0.121,1.59,0.308V466.547z"/>
			<path id="XMLID_44_" style="fill:#9EB7C7;" d="M286.298,469.878c-0.177-0.029-0.357-0.046-0.525-0.046
				c-0.895,0-1.51,0.548-1.51,1.613v3.908h-1.933v-7.172h1.873v0.784c0.451-0.673,1.14-0.977,2.021-0.977
				c0.414,0,0.848,0.128,1.095,0.337L286.298,469.878z"/>
			<path id="XMLID_41_" style="fill:#9EB7C7;" d="M293.966,471.757c0,0.222-0.016,0.488-0.037,0.651h-5.085
				c0.207,1.036,0.933,1.487,1.843,1.487c0.622,0,1.295-0.252,1.813-0.689l1.133,1.243c-0.815,0.748-1.851,1.089-3.057,1.089
				c-2.198,0-3.724-1.496-3.724-3.753c0-2.258,1.48-3.797,3.627-3.797C292.544,467.989,293.958,469.522,293.966,471.757z
				 M288.852,471.091h3.175c-0.178-0.918-0.732-1.436-1.561-1.436C289.555,469.654,289.021,470.202,288.852,471.091z"/>
			<path id="XMLID_38_" style="fill:#9EB7C7;" d="M301.619,471.757c0,0.222-0.016,0.488-0.037,0.651h-5.085
				c0.207,1.036,0.933,1.487,1.843,1.487c0.622,0,1.296-0.252,1.813-0.689l1.133,1.243c-0.815,0.748-1.851,1.089-3.058,1.089
				c-2.198,0-3.723-1.496-3.723-3.753c0-2.258,1.48-3.797,3.627-3.797C300.197,467.989,301.611,469.522,301.619,471.757z
				 M296.505,471.091h3.175c-0.178-0.918-0.733-1.436-1.561-1.436C297.208,469.654,296.675,470.202,296.505,471.091z"/>
			<path id="XMLID_35_" style="fill:#9EB7C7;" d="M309.965,471.764c0,2.154-1.495,3.775-3.472,3.775
				c-0.962,0-1.643-0.378-2.109-0.933v3.708h-1.925v-10.133h1.888v0.792c0.467-0.585,1.154-0.984,2.139-0.984
				C308.47,467.989,309.965,469.61,309.965,471.764z M304.287,471.764c0,1.133,0.748,1.977,1.844,1.977
				c1.14,0,1.85-0.881,1.85-1.977c0-1.095-0.71-1.976-1.85-1.976C305.035,469.788,304.287,470.632,304.287,471.764z"/>
			<path id="XMLID_32_" style="fill:#9EB7C7;" d="M313.068,465.835c0,0.696-0.541,1.23-1.236,1.23c-0.696,0-1.228-0.533-1.228-1.23
				c0-0.695,0.532-1.243,1.228-1.243C312.527,464.592,313.068,465.14,313.068,465.835z M312.809,475.353h-1.932v-7.172h1.932
				V475.353z"/>
			<path id="XMLID_30_" style="fill:#9EB7C7;" d="M316.032,470.735l2.702-2.554h2.368l-3.479,3.375l3.501,3.797h-2.376l-2.717-2.901
				v2.901h-1.932v-10.658h1.932V470.735z"/>
		</g>
		<g>
			<path style="fill:#9EB7C7;" d="M184.413,475.289v-1.055c-0.527,0.718-1.391,1.23-2.387,1.23c-1.846,0-3.149-1.406-3.149-3.706
				c0-2.256,1.289-3.721,3.149-3.721c0.952,0,1.816,0.469,2.387,1.245v-3.765h1.099v9.771H184.413z M184.413,473.37v-3.208
				c-0.395-0.615-1.245-1.143-2.124-1.143c-1.42,0-2.27,1.172-2.27,2.739c0,1.567,0.85,2.725,2.27,2.725
				C183.168,474.483,184.018,473.985,184.413,473.37z"/>
			<path style="fill:#9EB7C7;" d="M186.932,471.744c0-2.051,1.465-3.706,3.486-3.706c2.139,0,3.398,1.67,3.398,3.794v0.278h-5.727
				c0.088,1.333,1.025,2.446,2.549,2.446c0.806,0,1.626-0.322,2.182-0.894l0.527,0.718c-0.703,0.703-1.655,1.084-2.812,1.084
				C188.441,475.465,186.932,473.956,186.932,471.744z M190.404,468.946c-1.509,0-2.256,1.274-2.314,2.358h4.644
				C192.718,470.25,192.015,468.946,190.404,468.946z"/>
			<path style="fill:#9EB7C7;" d="M194.607,474.352l0.571-0.791c0.469,0.542,1.362,1.011,2.329,1.011c1.084,0,1.67-0.513,1.67-1.216
				c0-1.714-4.38-0.659-4.38-3.281c0-1.099,0.952-2.036,2.636-2.036c1.202,0,2.051,0.454,2.623,1.025l-0.513,0.762
				c-0.424-0.513-1.201-0.893-2.109-0.893c-0.966,0-1.567,0.483-1.567,1.113c0,1.553,4.379,0.527,4.379,3.281
				c0,1.186-0.952,2.139-2.783,2.139C196.307,475.465,195.325,475.113,194.607,474.352z"/>
			<path style="fill:#9EB7C7;" d="M201.478,466.471c0-0.41,0.337-0.747,0.732-0.747c0.41,0,0.747,0.337,0.747,0.747
				c0,0.41-0.337,0.732-0.747,0.732C201.814,467.203,201.478,466.881,201.478,466.471z M201.667,475.289v-7.075h1.099v7.075H201.667
				z"/>
			<path style="fill:#9EB7C7;" d="M204.583,477.105l0.556-0.82c0.586,0.703,1.289,0.967,2.3,0.967c1.172,0,2.271-0.571,2.271-2.124
				v-1.011c-0.513,0.718-1.377,1.26-2.373,1.26c-1.846,0-3.149-1.377-3.149-3.662c0-2.271,1.289-3.677,3.149-3.677
				c0.952,0,1.802,0.469,2.373,1.245v-1.069h1.099v6.87c0,2.344-1.641,3.076-3.369,3.076
				C206.237,478.16,205.417,477.925,204.583,477.105z M209.709,473.253v-3.091c-0.381-0.615-1.23-1.143-2.109-1.143
				c-1.421,0-2.27,1.128-2.27,2.695c0,1.553,0.849,2.695,2.27,2.695C208.479,474.41,209.328,473.868,209.709,473.253z"/>
			<path style="fill:#9EB7C7;" d="M217.414,475.289v-4.629c0-1.245-0.63-1.641-1.582-1.641c-0.864,0-1.685,0.527-2.094,1.099v5.171
				h-1.099v-7.075h1.099v1.025c0.497-0.586,1.464-1.201,2.519-1.201c1.48,0,2.256,0.747,2.256,2.285v4.966H217.414z"/>
			<path style="fill:#9EB7C7;" d="M219.933,471.744c0-2.051,1.465-3.706,3.486-3.706c2.139,0,3.398,1.67,3.398,3.794v0.278h-5.727
				c0.088,1.333,1.025,2.446,2.548,2.446c0.806,0,1.626-0.322,2.183-0.894l0.527,0.718c-0.703,0.703-1.655,1.084-2.813,1.084
				C221.442,475.465,219.933,473.956,219.933,471.744z M223.404,468.946c-1.509,0-2.256,1.274-2.314,2.358h4.643
				C225.719,470.25,225.016,468.946,223.404,468.946z"/>
			<path style="fill:#9EB7C7;" d="M233.351,475.289v-1.055c-0.527,0.718-1.392,1.23-2.388,1.23c-1.845,0-3.149-1.406-3.149-3.706
				c0-2.256,1.289-3.721,3.149-3.721c0.952,0,1.817,0.469,2.388,1.245v-3.765h1.098v9.771H233.351z M233.351,473.37v-3.208
				c-0.396-0.615-1.245-1.143-2.124-1.143c-1.421,0-2.27,1.172-2.27,2.739c0,1.567,0.85,2.725,2.27,2.725
				C232.105,474.483,232.955,473.985,233.351,473.37z"/>
			<path style="fill:#9EB7C7;" d="M239.692,475.289v-9.771h1.099v3.765c0.571-0.776,1.421-1.245,2.388-1.245
				c1.845,0,3.149,1.465,3.149,3.721c0,2.3-1.304,3.706-3.149,3.706c-0.996,0-1.86-0.513-2.388-1.23v1.055H239.692z M242.9,474.483
				c1.436,0,2.285-1.157,2.285-2.725c0-1.567-0.85-2.739-2.285-2.739c-0.864,0-1.729,0.527-2.109,1.143v3.208
				C241.172,473.985,242.036,474.483,242.9,474.483z"/>
			<path style="fill:#9EB7C7;" d="M247.529,477.061c0.161,0.073,0.425,0.117,0.6,0.117c0.483,0,0.806-0.161,1.055-0.747l0.469-1.069
				l-2.959-7.148h1.186l2.358,5.801l2.344-5.801h1.2l-3.544,8.511c-0.425,1.024-1.143,1.421-2.08,1.436
				c-0.234,0-0.6-0.044-0.806-0.103L247.529,477.061z"/>
		</g>
	</g>
</g>
</svg>
