<svg width="22" height="22" viewBox="0 0 22 22" fill="none" xmlns="http://www.w3.org/2000/svg">
<path fill-rule="evenodd" clip-rule="evenodd" d="M15.4837 4.91491C15.9259 4.4727 16.6429 4.4727 17.0851 4.91491C17.5273 5.35712 17.5273 6.07409 17.0851 6.5163L12.6015 10.9999L17.0852 15.4835C17.5274 15.9257 17.5274 16.6427 17.0852 17.0849C16.643 17.5271 15.926 17.5271 15.4838 17.0849L11.0002 12.6013L6.51653 17.0849C6.07432 17.5271 5.35736 17.5271 4.91515 17.0849C4.47294 16.6427 4.47294 15.9257 4.91515 15.4835L9.39879 10.9999L4.91524 6.5163C4.47303 6.07409 4.47303 5.35712 4.91524 4.91491C5.35745 4.4727 6.07441 4.4727 6.51662 4.91491L11.0002 9.39849L15.4837 4.91491Z" fill="#010918"/>
</svg>
