<!--?xml version="1.0" standalone="no"?-->              <svg id="sw-js-blob-svg" viewBox="0 0 100 100" xmlns="http://www.w3.org/2000/svg" version="1.1">                    <defs>                         <linearGradient id="sw-gradient" x1="0" x2="1" y1="1" y2="0">                            <stop id="stop1" stop-color="rgba(255, 122.043, 59.116, 1)" offset="0%"></stop>                            <stop id="stop2" stop-color="rgba(185.629, 134.211, 134.211, 1)" offset="100%"></stop>                        </linearGradient>                    </defs>                <path fill="url(#sw-gradient)" d="M20.4,-34.3C26.6,-31.7,32.1,-26.7,32.2,-20.6C32.4,-14.4,27.3,-7.2,26,-0.8C24.7,5.7,27.2,11.4,25.7,15.2C24.2,19.1,18.7,21,13.8,22.6C8.8,24.2,4.4,25.6,-0.8,26.9C-6,28.2,-11.9,29.6,-16.3,27.7C-20.7,25.7,-23.6,20.5,-25.1,15.3C-26.6,10.2,-26.8,5.1,-26.4,0.2C-26,-4.7,-25.1,-9.3,-24.3,-15.6C-23.4,-21.9,-22.6,-29.8,-18.6,-33.7C-14.5,-37.6,-7.3,-37.4,-0.1,-37.2C7.1,-37,14.1,-36.9,20.4,-34.3Z" width="100%" height="100%" transform="translate(50 50)" stroke-width="0" style="transition: all 0.3s ease 0s;" stroke="url(#sw-gradient)"></path>              </svg>